# xmcd
#
# Track frame offsets:
#	150
#	15692
#	31865
#	64070
#
# Disc length: 1201 seconds
#
# Revision: 0
# Processed by: cddbd v1.5.2PL0 Copyright (c) Steve Scherf et al.
# Submitted via: EasyCDDAExtractor 2011.0.0.0
#
DISCID=2804af04
DTITLE=New Vision - (Just) Me And You
DYEAR=1999
DGENRE=House
TTITLE0=(Just) Me And You (Radio Edit)
TTITLE1=(Just) Me And You (Grant Nelson Radio Edit)
TTITLE2=(Just) Me And You (Joey Negro Club Mix)
TTITLE3=(Just) Me And You (DJ Disco's Superfreak Dub)
EXTD=
EXTT0=
EXTT1=
EXTT2=
EXTT3=
PLAYORDER=
